<svg width="60" height="60" viewBox="0 0 60 60" fill="none" xmlns="http://www.w3.org/2000/svg">
<path fill-rule="evenodd" clip-rule="evenodd" d="M56.4741 35.2941C58.4217 35.2922 60 33.7128 60 31.7647V3.52941C60 1.58017 58.4198 0 56.4706 0H28.2353C26.2861 0 24.7059 1.58018 24.7059 3.52941V31.7647C24.7059 33.7125 26.2837 35.2918 28.2309 35.2941C28.2324 35.2941 28.2338 35.2941 28.2353 35.2941L31.7647 35.2941C31.7668 35.2941 31.7688 35.2941 31.7709 35.2941H42.3468C42.3488 35.2941 42.3509 35.2941 42.3529 35.2941H56.4706C56.4718 35.2941 56.473 35.2941 56.4741 35.2941ZM38.8235 42.3529V56.4706C38.8235 58.4198 40.4037 60 42.3529 60H56.4706C58.4198 60 60 58.4198 60 56.4706V42.3529C60 40.4037 58.4198 38.8235 56.4706 38.8235H42.3529C40.4037 38.8235 38.8235 40.4037 38.8235 42.3529ZM35.2941 42.3494C35.2922 40.4018 33.7128 38.8235 31.7647 38.8235H23.4114C22.1771 38.8235 21.1765 37.8229 21.1765 36.5886V31.7691C21.1765 31.7676 21.1765 31.7662 21.1765 31.7647V28.2353C21.1765 28.2343 21.1765 28.2332 21.1765 28.2322C21.1748 26.2844 19.5953 24.7059 17.6471 24.7059H3.52941C1.58017 24.7059 0 26.2861 0 28.2353V56.4706C0 58.4198 1.58018 60 3.52942 60H31.7647C33.7128 60 35.2922 58.4218 35.2941 56.4741C35.2941 56.473 35.2941 56.4718 35.2941 56.4706V42.3529C35.2941 42.3518 35.2941 42.3506 35.2941 42.3494ZM17.6496 21.1765C19.5966 21.1751 21.1748 19.5971 21.1765 17.6501C21.1765 17.6491 21.1765 17.6481 21.1765 17.6471V3.52942C21.1765 3.52858 21.1765 3.52774 21.1765 3.5269C21.1751 1.57881 19.5955 0 17.6471 0H3.52941C1.58017 0 0 1.58017 0 3.52941V17.6471C0 19.5955 1.57881 21.1751 3.5269 21.1765C3.52774 21.1765 3.52857 21.1765 3.52941 21.1765H17.6471C17.6479 21.1765 17.6487 21.1765 17.6496 21.1765Z" fill="#E5E7EA"/>
</svg>
